<svg width="382" height="382" viewBox="0 0 382 382" fill="none" xmlns="http://www.w3.org/2000/svg">
<circle cx="191" cy="191" r="191" fill="url(#paint0_linear_0_1)"/>
<path d="M125.994 251.588C131.69 251.484 136.621 249.461 140.681 245.391C152.643 233.404 164.603 221.41 176.56 209.41C179.822 206.084 184.116 203.974 188.734 203.428C196.035 202.509 201.958 205.383 206.967 210.354C218.576 221.872 230.12 233.447 241.599 245.08C245.849 249.355 250.919 251.639 256.955 251.548C262.507 251.467 267.287 249.4 271.209 245.47C284.331 232.329 297.502 219.208 310.542 205.963C318.87 197.51 318.744 184.878 310.388 176.45C297.421 163.38 284.425 150.341 271.398 137.333C262.939 128.877 250.283 128.892 241.806 137.361C230.091 149.062 218.398 160.79 206.727 172.542C203.631 175.657 200.007 177.84 195.76 178.873C189.753 180.355 184.307 178.84 179.374 175.345C177.573 174.029 175.885 172.564 174.326 170.967C163.212 159.864 152.119 148.742 141.047 137.599C132.298 128.814 119.662 128.834 110.905 137.629C98.1187 150.46 85.3273 163.292 72.5308 176.123C68.2406 180.415 65.9189 185.493 66.0022 191.624C66.0754 197.011 67.9403 201.706 71.6677 205.553C75.973 210.007 80.3818 214.358 84.7527 218.747C93.5518 227.587 102.355 236.423 111.162 245.255C115.258 249.36 120.177 251.467 125.994 251.588Z" fill="white"/>
<defs>
<linearGradient id="paint0_linear_0_1" x1="0" y1="191" x2="382" y2="191" gradientUnits="userSpaceOnUse">
<stop stop-color="#4C00CD"/>
<stop offset="1" stop-color="#8C00E0"/>
</linearGradient>
</defs>
</svg>
